<svg width="128" height="29" fill="none" xmlns="http://www.w3.org/2000/svg" id="svg-1707721749_4900"><circle cx="14.833" cy="14.146" r="12.833" stroke="#266DF0" stroke-width="2.333"></circle><ellipse cx="14.835" cy="14.146" rx="7.583" ry="12.833" transform="rotate(45 14.835 14.146)" stroke="#266DF0" stroke-width="2.333"></ellipse><ellipse cx="14.831" cy="14.146" rx="7.583" ry="12.833" transform="rotate(-45 14.831 14.146)" stroke="#266DF0" stroke-width="2.333"></ellipse><path d="M39.668 21.646V7.354h5.104a3.91 3.91 0 0 1 2.103.582 4.318 4.318 0 0 1 2.052 3.716 4.25 4.25 0 0 1-.572 2.185 4.343 4.343 0 0 1-1.51 1.551 3.944 3.944 0 0 1-2.073.572H42.16v5.686h-2.491Zm2.49-8.177h2.349c.354 0 .677-.088.97-.265.292-.177.524-.415.694-.715.177-.3.265-.633.265-1a1.95 1.95 0 0 0-.265-1.01c-.17-.3-.402-.538-.694-.715a1.838 1.838 0 0 0-.97-.266h-2.348v3.971Zm8.227 8.177V6.334h2.491v15.312h-2.49Zm12.074-10.208h2.49v10.208h-2.49l-.112-1.266c-.28.456-.65.827-1.113 1.113-.456.279-.997.419-1.623.419a5.286 5.286 0 0 1-2.123-.43 5.583 5.583 0 0 1-1.746-1.183 5.67 5.67 0 0 1-1.174-1.746 5.397 5.397 0 0 1-.419-2.123 5.3 5.3 0 0 1 .399-2.052 5.314 5.314 0 0 1 2.807-2.818 5.112 5.112 0 0 1 2.042-.408c.673 0 1.276.15 1.806.45.538.299.994.68 1.368 1.143l-.112-1.307Zm-2.91 8.075c.532 0 1.001-.133 1.41-.399a2.76 2.76 0 0 0 .959-1.071c.231-.456.347-.957.347-1.501 0-.551-.116-1.052-.347-1.5a2.716 2.716 0 0 0-.97-1.083 2.509 2.509 0 0 0-1.398-.398 2.66 2.66 0 0 0-1.44.409 2.997 2.997 0 0 0-1.03 1.071c-.253.45-.378.95-.378 1.501a2.998 2.998 0 0 0 1.419 2.572c.435.266.911.399 1.429.399Zm16.378-4.319v6.452h-2.491v-5.798c0-.402-.099-.766-.296-1.093a2.151 2.151 0 0 0-.797-.786 2.071 2.071 0 0 0-1.092-.296 2.175 2.175 0 0 0-1.888 1.082 2.126 2.126 0 0 0-.286 1.093v5.798h-2.491l-.01-10.208h2.49l.01.908a3.763 3.763 0 0 1 1.246-.867 3.756 3.756 0 0 1 1.562-.327c.742 0 1.419.184 2.031.551.613.36 1.1.848 1.46 1.46a3.84 3.84 0 0 1 .552 2.031Zm4.514-5.9v2.144h2.787v2.49H80.44v7.718h-2.49V13.93h-1.113v-2.491h1.112V9.294c0-.585.143-1.12.429-1.603.293-.49.684-.878 1.174-1.163a3.106 3.106 0 0 1 1.623-.44c.429 0 .854.09 1.276.266.422.177.796.45 1.123.817l-1.797 1.756a.567.567 0 0 0-.265-.256.679.679 0 0 0-.337-.092.731.731 0 0 0-.52.215.664.664 0 0 0-.215.5Zm3.831 8.575v-6.431h2.49v5.778c0 .401.1.769.297 1.102.197.327.46.589.786.786.333.19.698.286 1.092.286.409 0 .776-.095 1.103-.286a2.3 2.3 0 0 0 .786-.786c.197-.333.296-.7.296-1.102v-5.778h2.49l.01 10.208h-2.49l-.01-.929c-.354.368-.773.66-1.256.878-.483.211-1 .317-1.552.317a3.93 3.93 0 0 1-2.031-.541 4.251 4.251 0 0 1-1.47-1.46 3.95 3.95 0 0 1-.541-2.042ZM98.27 21.83a5.65 5.65 0 0 1-1.542-.317 4.564 4.564 0 0 1-1.307-.745 3.193 3.193 0 0 1-.878-1.123l2.103-.898c.082.136.215.282.398.439.184.15.402.276.654.378.258.102.54.153.847.153.259 0 .504-.034.735-.102a1.33 1.33 0 0 0 .572-.337.789.789 0 0 0 .224-.582c0-.252-.088-.446-.265-.582a1.628 1.628 0 0 0-.654-.316 22.32 22.32 0 0 0-.755-.205 7.424 7.424 0 0 1-1.807-.602 3.851 3.851 0 0 1-1.337-1.051c-.334-.436-.5-.96-.5-1.572 0-.674.177-1.256.53-1.746a3.57 3.57 0 0 1 1.4-1.133 4.426 4.426 0 0 1 1.867-.398c.81 0 1.552.17 2.226.51.68.334 1.218.807 1.613 1.42l-1.971 1.163a1.63 1.63 0 0 0-.398-.45 2.157 2.157 0 0 0-.582-.346 1.975 1.975 0 0 0-.684-.164 2.737 2.737 0 0 0-.837.082 1.295 1.295 0 0 0-.612.347c-.15.163-.225.381-.225.653 0 .259.102.453.306.582.205.123.45.218.735.286.293.068.572.143.838.225.598.197 1.16.439 1.684.724.531.286.956.637 1.276 1.052.32.415.473.912.459 1.49a2.71 2.71 0 0 1-.592 1.736 3.77 3.77 0 0 1-1.531 1.123c-.62.258-1.283.36-1.99.306Zm5.213-10.392h2.491v10.208h-2.491V11.438Zm1.266-1.317c-.368 0-.678-.12-.929-.357a1.229 1.229 0 0 1-.378-.92c0-.36.126-.663.378-.908.251-.245.558-.367.918-.367.361 0 .664.122.909.367.252.245.378.548.378.909 0 .367-.123.674-.368.919a1.253 1.253 0 0 1-.908.357Zm7.523 11.791a4.77 4.77 0 0 1-2.573-.725 5.436 5.436 0 0 1-1.848-1.94 5.454 5.454 0 0 1-.684-2.705c0-.749.133-1.446.399-2.093a5.456 5.456 0 0 1 1.092-1.715 5.118 5.118 0 0 1 1.633-1.164 4.767 4.767 0 0 1 1.981-.418 4.72 4.72 0 0 1 2.562.725 5.298 5.298 0 0 1 1.848 1.95c.462.816.694 1.721.694 2.715 0 .742-.133 1.436-.398 2.082a5.535 5.535 0 0 1-1.103 1.716 5.086 5.086 0 0 1-1.623 1.153 4.723 4.723 0 0 1-1.98.419Zm0-2.491c.496 0 .942-.133 1.337-.398.395-.266.704-.616.929-1.052.231-.435.347-.912.347-1.429 0-.53-.119-1.014-.357-1.45a2.73 2.73 0 0 0-.95-1.051 2.291 2.291 0 0 0-1.306-.398c-.49 0-.933.132-1.328.398a2.85 2.85 0 0 0-.939 1.062 3.063 3.063 0 0 0-.347 1.439c0 .538.119 1.024.358 1.46.238.435.554.782.949 1.041a2.41 2.41 0 0 0 1.307.378Zm15.636-4.227v6.452h-2.491v-5.798c0-.402-.099-.766-.296-1.093a2.159 2.159 0 0 0-.796-.786 2.073 2.073 0 0 0-1.093-.296 2.17 2.17 0 0 0-1.888 1.082 2.126 2.126 0 0 0-.286 1.093v5.798h-2.491l-.01-10.208h2.491l.01.908a3.762 3.762 0 0 1 1.245-.867 3.76 3.76 0 0 1 1.562-.327 3.88 3.88 0 0 1 2.032.551c.612.36 1.099.848 1.459 1.46.368.606.552 1.283.552 2.031Z" fill="#111827"></path></svg>